<?xml version="1.0" standalone="no"?>
<!DOCTYPE svg PUBLIC "-//W3C//DTD SVG 20010904//EN"
 "http://www.w3.org/TR/2001/REC-SVG-20010904/DTD/svg10.dtd">
<svg version="1.0" xmlns="http://www.w3.org/2000/svg"
 width="260.000000pt" height="260.000000pt" viewBox="0 0 260.000000 260.000000"
 preserveAspectRatio="xMidYMid meet">
<metadata>
Created by potrace 1.11, written by Peter Selinger 2001-2013
</metadata>
<g transform="translate(0.000000,260.000000) scale(0.100000,-0.100000)"
fill="#000000" stroke="none">
<path d="M1130 1578 c0 -416 -4 -790 -10 -837 -16 -141 -58 -186 -173 -186
-65 0 -77 3 -118 32 -25 17 -56 48 -70 67 -13 20 -27 36 -31 36 -4 0 -57 -36
-118 -81 l-110 -81 42 -59 c97 -139 244 -209 438 -209 244 0 403 121 465 355
12 46 17 138 22 408 l6 347 152 0 c229 0 357 39 470 142 109 99 161 266 136
434 -29 199 -156 324 -373 368 -61 13 -147 16 -403 16 l-325 0 0 -752z m685
461 c70 -36 95 -81 95 -177 0 -85 -14 -124 -61 -170 -48 -47 -110 -62 -254
-62 l-122 0 -6 113 c-4 61 -7 161 -7 221 l0 108 153 -3 c140 -4 157 -6 202
-30z"/>
</g>
</svg>
